<?xml version="1.0" standalone="no"?>
<!DOCTYPE svg PUBLIC "-//W3C//DTD SVG 20010904//EN"
 "http://www.w3.org/TR/2001/REC-SVG-20010904/DTD/svg10.dtd">
<svg version="1.0" xmlns="http://www.w3.org/2000/svg"
 width="212.000000pt" height="212.000000pt" viewBox="0 0 212.000000 212.000000"
 preserveAspectRatio="xMidYMid meet">

<g transform="translate(0.000000,212.000000) scale(0.100000,-0.100000)"
fill="#000000" stroke="none">
<path d="M316 1468 c83 -88 102 -120 233 -376 l126 -247 100 -3 100 -2 49 92
c27 51 67 124 90 162 l41 70 10 -70 c9 -53 29 -104 89 -222 l77 -153 37 3 c36
3 40 8 157 182 l120 178 3 -231 2 -231 110 0 110 0 0 450 0 450 -102 0 -103
-1 -21 -32 c-36 -55 -237 -352 -244 -360 -3 -4 -51 83 -105 193 l-100 201 -54
-3 -54 -3 -98 -175 c-54 -96 -102 -181 -106 -188 -6 -10 -39 45 -102 165 -52
98 -98 184 -104 191 -7 9 -51 12 -160 12 l-150 0 49 -52z"/>
<path d="M976 905 c-22 -44 -42 -87 -46 -95 -5 -10 -27 -17 -66 -20 l-59 -5
-100 -161 c-55 -88 -137 -220 -182 -293 l-82 -132 52 -33 c29 -18 72 -43 96
-56 53 -27 30 -52 194 210 66 107 148 238 181 290 56 89 60 100 63 165 2 39 1
102 -4 140 l-8 70 -39 -80z"/>
</g>
</svg>
